<svg xmlns="http://www.w3.org/2000/svg" width="980" height="560" viewBox="0 0 980 560">
<rect width="100%" height="100%" fill="#ffffff" />
<text x="80" y="45" font-family="Arial, sans-serif" font-size="24" font-weight="700" fill="#172026">RolePlay Defense Comparison</text>
<text x="80" y="75" font-family="Arial, sans-serif" font-size="14" fill="#52616b">ASR lower is better; clean QWK higher is better.</text>
<line x1="80" y1="365" x2="920" y2="365" stroke="#24343d" stroke-width="1.2" />
<line x1="80" y1="105" x2="80" y2="365" stroke="#24343d" stroke-width="1.2" />
<line x1="74" y1="365.0" x2="920" y2="365.0" stroke="#e5e9ec" stroke-width="1" />
<text x="38" y="369.0" font-family="Arial, sans-serif" font-size="12" fill="#5b6970">0.0</text>
<line x1="74" y1="313.0" x2="920" y2="313.0" stroke="#e5e9ec" stroke-width="1" />
<text x="38" y="317.0" font-family="Arial, sans-serif" font-size="12" fill="#5b6970">0.1</text>
<line x1="74" y1="261.0" x2="920" y2="261.0" stroke="#e5e9ec" stroke-width="1" />
<text x="38" y="265.0" font-family="Arial, sans-serif" font-size="12" fill="#5b6970">0.2</text>
<line x1="74" y1="209.0" x2="920" y2="209.0" stroke="#e5e9ec" stroke-width="1" />
<text x="38" y="213.0" font-family="Arial, sans-serif" font-size="12" fill="#5b6970">0.3</text>
<line x1="74" y1="157.0" x2="920" y2="157.0" stroke="#e5e9ec" stroke-width="1" />
<text x="38" y="161.0" font-family="Arial, sans-serif" font-size="12" fill="#5b6970">0.4</text>
<line x1="74" y1="105.0" x2="920" y2="105.0" stroke="#e5e9ec" stroke-width="1" />
<text x="38" y="109.0" font-family="Arial, sans-serif" font-size="12" fill="#5b6970">0.5</text>
<rect x="125.0" y="278.8" width="42.0" height="86.2" fill="#d95f59" rx="3" />
<rect x="179.0" y="197.2" width="42.0" height="167.8" fill="#3576b8" rx="3" />
<text x="173.0" y="395" text-anchor="middle" font-family="Arial, sans-serif" font-size="13" fill="#172026">No defense</text>
<text x="146.0" y="270.8" text-anchor="middle" font-family="Arial, sans-serif" font-size="12" fill="#172026">0.166</text>
<text x="200.0" y="189.2" text-anchor="middle" font-family="Arial, sans-serif" font-size="12" fill="#172026">0.323</text>
<text x="173.0" y="418" text-anchor="middle" font-family="Arial, sans-serif" font-size="11" fill="#6b7780">n=300</text>
<rect x="325.0" y="339.1" width="42.0" height="25.9" fill="#d95f59" rx="3" />
<rect x="379.0" y="192.4" width="42.0" height="172.6" fill="#3576b8" rx="3" />
<text x="373.0" y="395" text-anchor="middle" font-family="Arial, sans-serif" font-size="13" fill="#172026">SelfReminder</text>
<text x="346.0" y="331.1" text-anchor="middle" font-family="Arial, sans-serif" font-size="12" fill="#172026">0.050</text>
<text x="400.0" y="184.4" text-anchor="middle" font-family="Arial, sans-serif" font-size="12" fill="#172026">0.332</text>
<text x="373.0" y="418" text-anchor="middle" font-family="Arial, sans-serif" font-size="11" fill="#6b7780">n=300</text>
<rect x="525.0" y="353.5" width="42.0" height="11.5" fill="#d95f59" rx="3" />
<rect x="579.0" y="269.5" width="42.0" height="95.5" fill="#3576b8" rx="3" />
<text x="573.0" y="395" text-anchor="middle" font-family="Arial, sans-serif" font-size="13" fill="#172026">ParaphraseDefense</text>
<text x="546.0" y="345.5" text-anchor="middle" font-family="Arial, sans-serif" font-size="12" fill="#172026">0.022</text>
<text x="600.0" y="261.5" text-anchor="middle" font-family="Arial, sans-serif" font-size="12" fill="#172026">0.184</text>
<text x="573.0" y="418" text-anchor="middle" font-family="Arial, sans-serif" font-size="11" fill="#6b7780">n=300</text>
<rect x="725.0" y="278.3" width="42.0" height="86.7" fill="#d95f59" rx="3" />
<rect x="779.0" y="207.6" width="42.0" height="157.4" fill="#3576b8" rx="3" />
<text x="773.0" y="395" text-anchor="middle" font-family="Arial, sans-serif" font-size="13" fill="#172026">SmoothLLM</text>
<text x="746.0" y="270.3" text-anchor="middle" font-family="Arial, sans-serif" font-size="12" fill="#172026">0.167</text>
<text x="800.0" y="199.6" text-anchor="middle" font-family="Arial, sans-serif" font-size="12" fill="#172026">0.303</text>
<text x="773.0" y="418" text-anchor="middle" font-family="Arial, sans-serif" font-size="11" fill="#6b7780">n=50</text>
<rect x="80" y="462" width="16" height="16" fill="#d95f59" rx="3" />
<text x="104" y="475" font-family="Arial, sans-serif" font-size="13" fill="#172026">Defended ASR</text>
<rect x="220" y="462" width="16" height="16" fill="#3576b8" rx="3" />
<text x="244" y="475" font-family="Arial, sans-serif" font-size="13" fill="#172026">Defended clean QWK</text>
<text x="80" y="515" font-family="Arial, sans-serif" font-size="12" fill="#52616b">Source: RESULTS.md and tracked metrics JSON files. SmoothLLM is a 50-sample smoke test.</text>
</svg>